<?xml version="1.0" encoding="UTF-8" standalone="no"?><svg xmlns="http://www.w3.org/2000/svg" xmlns:xlink="http://www.w3.org/1999/xlink" contentScriptType="application/ecmascript" contentStyleType="text/css" height="356px" preserveAspectRatio="none" style="width:729px;height:356px;background:#FFFFFF;" version="1.1" viewBox="0 0 729 356" width="729px" zoomAndPan="magnify"><defs><filter height="300%" id="f1q5jxnmk36erc" width="300%" x="-1" y="-1"><feGaussianBlur result="blurOut" stdDeviation="2.0"/><feColorMatrix in="blurOut" result="blurOut2" type="matrix" values="0 0 0 0 0 0 0 0 0 0 0 0 0 0 0 0 0 0 .4 0"/><feOffset dx="4.0" dy="4.0" in="blurOut2" result="blurOut3"/><feBlend in="SourceGraphic" in2="blurOut3" mode="normal"/></filter></defs><g><text fill="#000000" font-family="sans-serif" font-size="18" lengthAdjust="spacing" textLength="129" x="293.75" y="16.708">MarketChange</text><!--MD5=[7d69857d9c591b90ff900af33446de81]
class ProductChangeListener--><rect codeLine="5" fill="#FEFECE" filter="url(#f1q5jxnmk36erc)" height="86.4141" id="ProductChangeListener" style="stroke:#A80036;stroke-width:1.5;" width="263" x="192.5" y="148.9531"/><ellipse cx="246.25" cy="164.9531" fill="#ADD1B2" rx="11" ry="11" style="stroke:#A80036;stroke-width:1.0;"/><path d="M249.2188,170.5938 Q248.6406,170.8906 248,171.0313 Q247.3594,171.1875 246.6563,171.1875 Q244.1563,171.1875 242.8281,169.5469 Q241.5156,167.8906 241.5156,164.7656 Q241.5156,161.6406 242.8281,159.9844 Q244.1563,158.3281 246.6563,158.3281 Q247.3594,158.3281 248,158.4844 Q248.6563,158.6406 249.2188,158.9375 L249.2188,161.6563 Q248.5938,161.0781 248,160.8125 Q247.4063,160.5313 246.7813,160.5313 Q245.4375,160.5313 244.75,161.6094 Q244.0625,162.6719 244.0625,164.7656 Q244.0625,166.8594 244.75,167.9375 Q245.4375,169 246.7813,169 Q247.4063,169 248,168.7344 Q248.5938,168.4531 249.2188,167.875 L249.2188,170.5938 Z " fill="#000000"/><text fill="#000000" font-family="sans-serif" font-size="12" lengthAdjust="spacing" textLength="147" x="266.75" y="169.1074">ProductChangeListener</text><line style="stroke:#A80036;stroke-width:1.5;" x1="193.5" x2="454.5" y1="180.9531" y2="180.9531"/><text fill="#000000" font-family="sans-serif" font-size="11" lengthAdjust="spacing" textLength="183" x="198.5" y="195.1636">validatorEngine: ValidatorEngine</text><text fill="#000000" font-family="sans-serif" font-size="11" lengthAdjust="spacing" textLength="251" x="198.5" y="207.9683">markerViewConverter: MarketViewConverter</text><text fill="#000000" font-family="sans-serif" font-size="11" lengthAdjust="spacing" textLength="202" x="198.5" y="220.7729">marketProcessor: MarketProcessor</text><line style="stroke:#A80036;stroke-width:1.5;" x1="193.5" x2="454.5" y1="227.3672" y2="227.3672"/><!--MD5=[785be742bed23c383deb66037eb486fd]
class MarketViewUpdateListener--><rect codeLine="11" fill="#FEFECE" filter="url(#f1q5jxnmk36erc)" height="60.8047" id="MarketViewUpdateListener" style="stroke:#A80036;stroke-width:1.5;" width="200" x="7" y="27.9531"/><ellipse cx="22" cy="43.9531" fill="#B4A7E5" rx="11" ry="11" style="stroke:#A80036;stroke-width:1.0;"/><path d="M17.9219,39.7188 L17.9219,37.5625 L25.3125,37.5625 L25.3125,39.7188 L22.8438,39.7188 L22.8438,47.7969 L25.3125,47.7969 L25.3125,49.9531 L17.9219,49.9531 L17.9219,47.7969 L20.3906,47.7969 L20.3906,39.7188 L17.9219,39.7188 Z " fill="#000000"/><text fill="#000000" font-family="sans-serif" font-size="12" font-style="italic" lengthAdjust="spacing" textLength="168" x="36" y="48.1074">MarketViewUpdateListener</text><line style="stroke:#A80036;stroke-width:1.5;" x1="8" x2="206" y1="59.9531" y2="59.9531"/><line style="stroke:#A80036;stroke-width:1.5;" x1="8" x2="206" y1="67.9531" y2="67.9531"/><text fill="#000000" font-family="sans-serif" font-size="11" lengthAdjust="spacing" textLength="133" x="13" y="82.1636">onMarketViewUpdates()</text><!--MD5=[12011b7699b9c8c3b57a021ce13873c1]
class MarketViewConverter--><rect fill="#FEFECE" filter="url(#f1q5jxnmk36erc)" height="48" id="MarketViewConverter" style="stroke:#A80036;stroke-width:1.5;" width="164" x="242" y="34.4531"/><ellipse cx="257" cy="50.4531" fill="#ADD1B2" rx="11" ry="11" style="stroke:#A80036;stroke-width:1.0;"/><path d="M259.9688,56.0938 Q259.3906,56.3906 258.75,56.5313 Q258.1094,56.6875 257.4063,56.6875 Q254.9063,56.6875 253.5781,55.0469 Q252.2656,53.3906 252.2656,50.2656 Q252.2656,47.1406 253.5781,45.4844 Q254.9063,43.8281 257.4063,43.8281 Q258.1094,43.8281 258.75,43.9844 Q259.4063,44.1406 259.9688,44.4375 L259.9688,47.1563 Q259.3438,46.5781 258.75,46.3125 Q258.1563,46.0313 257.5313,46.0313 Q256.1875,46.0313 255.5,47.1094 Q254.8125,48.1719 254.8125,50.2656 Q254.8125,52.3594 255.5,53.4375 Q256.1875,54.5 257.5313,54.5 Q258.1563,54.5 258.75,54.2344 Q259.3438,53.9531 259.9688,53.375 L259.9688,56.0938 Z " fill="#000000"/><text fill="#000000" font-family="sans-serif" font-size="12" lengthAdjust="spacing" textLength="132" x="271" y="54.6074">MarketViewConverter</text><line style="stroke:#A80036;stroke-width:1.5;" x1="243" x2="405" y1="66.4531" y2="66.4531"/><line style="stroke:#A80036;stroke-width:1.5;" x1="243" x2="405" y1="74.4531" y2="74.4531"/><!--MD5=[a30d656938bd8ae28e0ee0a7242fa658]
class MarketProcessorPort--><rect fill="#FEFECE" filter="url(#f1q5jxnmk36erc)" height="48" id="MarketProcessorPort" style="stroke:#A80036;stroke-width:1.5;" width="164" x="441" y="34.4531"/><ellipse cx="456" cy="50.4531" fill="#ADD1B2" rx="11" ry="11" style="stroke:#A80036;stroke-width:1.0;"/><path d="M458.9688,56.0938 Q458.3906,56.3906 457.75,56.5313 Q457.1094,56.6875 456.4063,56.6875 Q453.9063,56.6875 452.5781,55.0469 Q451.2656,53.3906 451.2656,50.2656 Q451.2656,47.1406 452.5781,45.4844 Q453.9063,43.8281 456.4063,43.8281 Q457.1094,43.8281 457.75,43.9844 Q458.4063,44.1406 458.9688,44.4375 L458.9688,47.1563 Q458.3438,46.5781 457.75,46.3125 Q457.1563,46.0313 456.5313,46.0313 Q455.1875,46.0313 454.5,47.1094 Q453.8125,48.1719 453.8125,50.2656 Q453.8125,52.3594 454.5,53.4375 Q455.1875,54.5 456.5313,54.5 Q457.1563,54.5 457.75,54.2344 Q458.3438,53.9531 458.9688,53.375 L458.9688,56.0938 Z " fill="#000000"/><text fill="#000000" font-family="sans-serif" font-size="12" lengthAdjust="spacing" textLength="132" x="470" y="54.6074">MarketProcessorPort</text><line style="stroke:#A80036;stroke-width:1.5;" x1="442" x2="604" y1="66.4531" y2="66.4531"/><line style="stroke:#A80036;stroke-width:1.5;" x1="442" x2="604" y1="74.4531" y2="74.4531"/><!--MD5=[15a71d9cbbcb9a154e88bda80f303121]
class Teste3--><rect fill="#FEFECE" filter="url(#f1q5jxnmk36erc)" height="48" id="Teste3" style="stroke:#A80036;stroke-width:1.5;" width="75" x="640.5" y="34.4531"/><ellipse cx="655.5" cy="50.4531" fill="#ADD1B2" rx="11" ry="11" style="stroke:#A80036;stroke-width:1.0;"/><path d="M658.4688,56.0938 Q657.8906,56.3906 657.25,56.5313 Q656.6094,56.6875 655.9063,56.6875 Q653.4063,56.6875 652.0781,55.0469 Q650.7656,53.3906 650.7656,50.2656 Q650.7656,47.1406 652.0781,45.4844 Q653.4063,43.8281 655.9063,43.8281 Q656.6094,43.8281 657.25,43.9844 Q657.9063,44.1406 658.4688,44.4375 L658.4688,47.1563 Q657.8438,46.5781 657.25,46.3125 Q656.6563,46.0313 656.0313,46.0313 Q654.6875,46.0313 654,47.1094 Q653.3125,48.1719 653.3125,50.2656 Q653.3125,52.3594 654,53.4375 Q654.6875,54.5 656.0313,54.5 Q656.6563,54.5 657.25,54.2344 Q657.8438,53.9531 658.4688,53.375 L658.4688,56.0938 Z " fill="#000000"/><text fill="#000000" font-family="sans-serif" font-size="12" lengthAdjust="spacing" textLength="43" x="669.5" y="54.6074">Teste3</text><line style="stroke:#A80036;stroke-width:1.5;" x1="641.5" x2="714.5" y1="66.4531" y2="66.4531"/><line style="stroke:#A80036;stroke-width:1.5;" x1="641.5" x2="714.5" y1="74.4531" y2="74.4531"/><!--MD5=[e0a88f998b9ba61543d3924cec410eb9]
class Teste--><rect fill="#FEFECE" filter="url(#f1q5jxnmk36erc)" height="48" id="Teste" style="stroke:#A80036;stroke-width:1.5;" width="67" x="644.5" y="167.9531"/><ellipse cx="659.5" cy="183.9531" fill="#ADD1B2" rx="11" ry="11" style="stroke:#A80036;stroke-width:1.0;"/><path d="M662.4688,189.5938 Q661.8906,189.8906 661.25,190.0313 Q660.6094,190.1875 659.9063,190.1875 Q657.4063,190.1875 656.0781,188.5469 Q654.7656,186.8906 654.7656,183.7656 Q654.7656,180.6406 656.0781,178.9844 Q657.4063,177.3281 659.9063,177.3281 Q660.6094,177.3281 661.25,177.4844 Q661.9063,177.6406 662.4688,177.9375 L662.4688,180.6563 Q661.8438,180.0781 661.25,179.8125 Q660.6563,179.5313 660.0313,179.5313 Q658.6875,179.5313 658,180.6094 Q657.3125,181.6719 657.3125,183.7656 Q657.3125,185.8594 658,186.9375 Q658.6875,188 660.0313,188 Q660.6563,188 661.25,187.7344 Q661.8438,187.4531 662.4688,186.875 L662.4688,189.5938 Z " fill="#000000"/><text fill="#000000" font-family="sans-serif" font-size="12" lengthAdjust="spacing" textLength="35" x="673.5" y="188.1074">Teste</text><line style="stroke:#A80036;stroke-width:1.5;" x1="645.5" x2="710.5" y1="199.9531" y2="199.9531"/><line style="stroke:#A80036;stroke-width:1.5;" x1="645.5" x2="710.5" y1="207.9531" y2="207.9531"/><!--MD5=[72a4c2000cb4992b35cb9c9286755277]
class Teste2--><rect fill="#FEFECE" filter="url(#f1q5jxnmk36erc)" height="48" id="Teste2" style="stroke:#A80036;stroke-width:1.5;" width="75" x="640.5" y="294.9531"/><ellipse cx="655.5" cy="310.9531" fill="#ADD1B2" rx="11" ry="11" style="stroke:#A80036;stroke-width:1.0;"/><path d="M658.4688,316.5938 Q657.8906,316.8906 657.25,317.0313 Q656.6094,317.1875 655.9063,317.1875 Q653.4063,317.1875 652.0781,315.5469 Q650.7656,313.8906 650.7656,310.7656 Q650.7656,307.6406 652.0781,305.9844 Q653.4063,304.3281 655.9063,304.3281 Q656.6094,304.3281 657.25,304.4844 Q657.9063,304.6406 658.4688,304.9375 L658.4688,307.6563 Q657.8438,307.0781 657.25,306.8125 Q656.6563,306.5313 656.0313,306.5313 Q654.6875,306.5313 654,307.6094 Q653.3125,308.6719 653.3125,310.7656 Q653.3125,312.8594 654,313.9375 Q654.6875,315 656.0313,315 Q656.6563,315 657.25,314.7344 Q657.8438,314.4531 658.4688,313.875 L658.4688,316.5938 Z " fill="#000000"/><text fill="#000000" font-family="sans-serif" font-size="12" lengthAdjust="spacing" textLength="43" x="669.5" y="315.1074">Teste2</text><line style="stroke:#A80036;stroke-width:1.5;" x1="641.5" x2="714.5" y1="326.9531" y2="326.9531"/><line style="stroke:#A80036;stroke-width:1.5;" x1="641.5" x2="714.5" y1="334.9531" y2="334.9531"/><!--MD5=[4b204867222824bde9c827d71aded838]
reverse link MarketViewUpdateListener to ProductChangeListener--><path codeLine="15" d="M172.87,99.3731 C198.68,115.0131 228.32,132.9731 254.48,148.8231 " fill="none" id="MarketViewUpdateListener-backto-ProductChangeListener" style="stroke:#A80036;stroke-width:1.0;stroke-dasharray:7.0,7.0;"/><polygon fill="none" points="169.18,105.3131,155.7,88.9631,176.43,93.3431,169.18,105.3131" style="stroke:#A80036;stroke-width:1.0;"/><!--MD5=[6a0ca80d4f10e35fc07b32e2b055e6a5]
link MarketViewConverter to ProductChangeListener--><path codeLine="17" d="M324,96.1331 C324,108.4131 324,136.8531 324,136.8531 " fill="none" id="MarketViewConverter-ProductChangeListener" style="stroke:#A80036;stroke-width:1.0;"/><polygon fill="#FFFFFF" points="324,148.8531,328,142.8531,324,136.8531,320,142.8531,324,148.8531" style="stroke:#A80036;stroke-width:1.0;"/><polygon fill="#A80036" points="324,82.6631,320,91.6631,324,87.6631,328,91.6631,324,82.6631" style="stroke:#A80036;stroke-width:1.0;"/><line style="stroke:#A80036;stroke-width:1.0;" x1="324" x2="324" y1="87.6631" y2="95.6631"/><!--MD5=[6858e1ba9874861f6437e1f5c61d9106]
link MarketProcessorPort to ProductChangeListener--><path codeLine="18" d="M476.99,89.8531 C453.79,105.1831 397.7249,142.2425 397.7249,142.2425 " fill="none" id="MarketProcessorPort-ProductChangeListener" style="stroke:#A80036;stroke-width:1.0;"/><polygon fill="#FFFFFF" points="387.71,148.8531,394.921,148.8861,397.7249,142.2425,390.5139,142.2095,387.71,148.8531" style="stroke:#A80036;stroke-width:1.0;"/><polygon fill="#A80036" points="487.88,82.6631,478.1652,84.2828,483.7071,85.4176,482.5723,90.9594,487.88,82.6631" style="stroke:#A80036;stroke-width:1.0;"/><line style="stroke:#A80036;stroke-width:1.0;" x1="483.7071" x2="477.035" y1="85.4176" y2="89.8281"/><!--MD5=[059debe519e6cd45989c2d25cddc18f5]
link Teste3 to Teste--><path codeLine="19" d="M678,95.6831 C678,113.9631 678,155.5331 678,155.5331 " fill="none" id="Teste3-Teste" style="stroke:#A80036;stroke-width:1.0;"/><polygon fill="#FFFFFF" points="678,167.5331,682,161.5331,678,155.5331,674,161.5331,678,167.5331" style="stroke:#A80036;stroke-width:1.0;"/><polygon fill="#A80036" points="678,82.6631,674,91.6631,678,87.6631,682,91.6631,678,82.6631" style="stroke:#A80036;stroke-width:1.0;"/><line style="stroke:#A80036;stroke-width:1.0;" x1="678" x2="678" y1="87.6631" y2="95.6631"/><!--MD5=[6ba5803409f50fb094711f5a8d873aac]
link Teste to Teste2--><path codeLine="20" d="M678,229.2431 C678,245.7831 678,282.8631 678,282.8631 " fill="none" id="Teste-Teste2" style="stroke:#A80036;stroke-width:1.0;"/><polygon fill="#FFFFFF" points="678,294.8631,682,288.8631,678,282.8631,674,288.8631,678,294.8631" style="stroke:#A80036;stroke-width:1.0;"/><polygon fill="#A80036" points="678,216.1731,674,225.1731,678,221.1731,682,225.1731,678,216.1731" style="stroke:#A80036;stroke-width:1.0;"/><line style="stroke:#A80036;stroke-width:1.0;" x1="678" x2="678" y1="221.1731" y2="229.1731"/><!--MD5=[a25a82463e99416d32761d60fe652a5a]
@startuml
skinparam backgroundColor white

title MarketChange

class ProductChangeListener{
validatorEngine: ValidatorEngine
markerViewConverter: MarketViewConverter
marketProcessor: MarketProcessor
}

interface MarketViewUpdateListener{
onMarketViewUpdates()
}

MarketViewUpdateListener <|.. ProductChangeListener

MarketViewConverter <- -o ProductChangeListener
MarketProcessorPort <- -o ProductChangeListener
Teste3 <- -o Teste
Teste <- -o Teste2

@enduml

PlantUML version 1.2021.7(Sun May 23 12:40:07 UTC 2021)
(GPL source distribution)
Java Runtime: OpenJDK Runtime Environment
JVM: OpenJDK 64-Bit Server VM
Default Encoding: UTF-8
Language: en
Country: null
--></g></svg>