<?xml version="1.0" encoding="UTF-8" standalone="no"?><svg xmlns="http://www.w3.org/2000/svg" xmlns:xlink="http://www.w3.org/1999/xlink" contentScriptType="application/ecmascript" contentStyleType="text/css" height="249px" preserveAspectRatio="none" style="width:992px;height:249px;background:#FFFFFF;" version="1.1" viewBox="0 0 992 249" width="992px" zoomAndPan="magnify"><defs><filter height="300%" id="fgi6ygszzs4fg" width="300%" x="-1" y="-1"><feGaussianBlur result="blurOut" stdDeviation="2.0"/><feColorMatrix in="blurOut" result="blurOut2" type="matrix" values="0 0 0 0 0 0 0 0 0 0 0 0 0 0 0 0 0 0 .4 0"/><feOffset dx="4.0" dy="4.0" in="blurOut2" result="blurOut3"/><feBlend in="SourceGraphic" in2="blurOut3" mode="normal"/></filter></defs><g><text fill="#000000" font-family="sans-serif" font-size="18" lengthAdjust="spacing" textLength="314" x="332.5" y="16.708">Market Change Flow Class Diagram</text><!--MD5=[cecbc9c4695074a1e2dd2d1bf6bbd955]
class MarketChange--><rect codeLine="5" fill="#FEFECE" filter="url(#fgi6ygszzs4fg)" height="86.4141" id="MarketChange" style="stroke:#A80036;stroke-width:1.5;" width="263" x="281.5" y="148.9531"/><ellipse cx="363.25" cy="164.9531" fill="#ADD1B2" rx="11" ry="11" style="stroke:#A80036;stroke-width:1.0;"/><path d="M366.2188,170.5938 Q365.6406,170.8906 365,171.0313 Q364.3594,171.1875 363.6563,171.1875 Q361.1563,171.1875 359.8281,169.5469 Q358.5156,167.8906 358.5156,164.7656 Q358.5156,161.6406 359.8281,159.9844 Q361.1563,158.3281 363.6563,158.3281 Q364.3594,158.3281 365,158.4844 Q365.6563,158.6406 366.2188,158.9375 L366.2188,161.6563 Q365.5938,161.0781 365,160.8125 Q364.4063,160.5313 363.7813,160.5313 Q362.4375,160.5313 361.75,161.6094 Q361.0625,162.6719 361.0625,164.7656 Q361.0625,166.8594 361.75,167.9375 Q362.4375,169 363.7813,169 Q364.4063,169 365,168.7344 Q365.5938,168.4531 366.2188,167.875 L366.2188,170.5938 Z " fill="#000000"/><text fill="#000000" font-family="sans-serif" font-size="12" lengthAdjust="spacing" textLength="91" x="383.75" y="169.1074">MarketChange</text><line style="stroke:#A80036;stroke-width:1.5;" x1="282.5" x2="543.5" y1="180.9531" y2="180.9531"/><text fill="#000000" font-family="sans-serif" font-size="11" lengthAdjust="spacing" textLength="183" x="287.5" y="195.1636">validatorEngine: ValidatorEngine</text><text fill="#000000" font-family="sans-serif" font-size="11" lengthAdjust="spacing" textLength="251" x="287.5" y="207.9683">markerViewConverter: MarketViewConverter</text><text fill="#000000" font-family="sans-serif" font-size="11" lengthAdjust="spacing" textLength="202" x="287.5" y="220.7729">marketProcessor: MarketProcessor</text><line style="stroke:#A80036;stroke-width:1.5;" x1="282.5" x2="543.5" y1="227.3672" y2="227.3672"/><!--MD5=[785be742bed23c383deb66037eb486fd]
class MarketViewUpdateListener--><rect codeLine="11" fill="#FEFECE" filter="url(#fgi6ygszzs4fg)" height="60.8047" id="MarketViewUpdateListener" style="stroke:#A80036;stroke-width:1.5;" width="200" x="7" y="27.9531"/><ellipse cx="22" cy="43.9531" fill="#B4A7E5" rx="11" ry="11" style="stroke:#A80036;stroke-width:1.0;"/><path d="M17.9219,39.7188 L17.9219,37.5625 L25.3125,37.5625 L25.3125,39.7188 L22.8438,39.7188 L22.8438,47.7969 L25.3125,47.7969 L25.3125,49.9531 L17.9219,49.9531 L17.9219,47.7969 L20.3906,47.7969 L20.3906,39.7188 L17.9219,39.7188 Z " fill="#000000"/><text fill="#000000" font-family="sans-serif" font-size="12" font-style="italic" lengthAdjust="spacing" textLength="168" x="36" y="48.1074">MarketViewUpdateListener</text><line style="stroke:#A80036;stroke-width:1.5;" x1="8" x2="206" y1="59.9531" y2="59.9531"/><line style="stroke:#A80036;stroke-width:1.5;" x1="8" x2="206" y1="67.9531" y2="67.9531"/><text fill="#000000" font-family="sans-serif" font-size="11" lengthAdjust="spacing" textLength="133" x="13" y="82.1636">onMarketViewUpdates()</text><!--MD5=[a30d656938bd8ae28e0ee0a7242fa658]
class MarketProcessorPort--><rect codeLine="15" fill="#FEFECE" filter="url(#fgi6ygszzs4fg)" height="48" id="MarketProcessorPort" style="stroke:#A80036;stroke-width:1.5;" width="160" x="242" y="34.4531"/><ellipse cx="257" cy="50.4531" fill="#B4A7E5" rx="11" ry="11" style="stroke:#A80036;stroke-width:1.0;"/><path d="M252.9219,46.2188 L252.9219,44.0625 L260.3125,44.0625 L260.3125,46.2188 L257.8438,46.2188 L257.8438,54.2969 L260.3125,54.2969 L260.3125,56.4531 L252.9219,56.4531 L252.9219,54.2969 L255.3906,54.2969 L255.3906,46.2188 L252.9219,46.2188 Z " fill="#000000"/><text fill="#000000" font-family="sans-serif" font-size="12" font-style="italic" lengthAdjust="spacing" textLength="128" x="271" y="54.6074">MarketProcessorPort</text><line style="stroke:#A80036;stroke-width:1.5;" x1="243" x2="401" y1="66.4531" y2="66.4531"/><line style="stroke:#A80036;stroke-width:1.5;" x1="243" x2="401" y1="74.4531" y2="74.4531"/><!--MD5=[029fb73276769b73c70d00c525700cc7]
class ValidatorEngine--><rect fill="#FEFECE" filter="url(#fgi6ygszzs4fg)" height="48" id="ValidatorEngine" style="stroke:#A80036;stroke-width:1.5;" width="131" x="437.5" y="34.4531"/><ellipse cx="452.5" cy="50.4531" fill="#ADD1B2" rx="11" ry="11" style="stroke:#A80036;stroke-width:1.0;"/><path d="M455.4688,56.0938 Q454.8906,56.3906 454.25,56.5313 Q453.6094,56.6875 452.9063,56.6875 Q450.4063,56.6875 449.0781,55.0469 Q447.7656,53.3906 447.7656,50.2656 Q447.7656,47.1406 449.0781,45.4844 Q450.4063,43.8281 452.9063,43.8281 Q453.6094,43.8281 454.25,43.9844 Q454.9063,44.1406 455.4688,44.4375 L455.4688,47.1563 Q454.8438,46.5781 454.25,46.3125 Q453.6563,46.0313 453.0313,46.0313 Q451.6875,46.0313 451,47.1094 Q450.3125,48.1719 450.3125,50.2656 Q450.3125,52.3594 451,53.4375 Q451.6875,54.5 453.0313,54.5 Q453.6563,54.5 454.25,54.2344 Q454.8438,53.9531 455.4688,53.375 L455.4688,56.0938 Z " fill="#000000"/><text fill="#000000" font-family="sans-serif" font-size="12" lengthAdjust="spacing" textLength="99" x="466.5" y="54.6074">ValidatorEngine</text><line style="stroke:#A80036;stroke-width:1.5;" x1="438.5" x2="567.5" y1="66.4531" y2="66.4531"/><line style="stroke:#A80036;stroke-width:1.5;" x1="438.5" x2="567.5" y1="74.4531" y2="74.4531"/><!--MD5=[12011b7699b9c8c3b57a021ce13873c1]
class MarketViewConverter--><rect fill="#FEFECE" filter="url(#fgi6ygszzs4fg)" height="48" id="MarketViewConverter" style="stroke:#A80036;stroke-width:1.5;" width="164" x="604" y="34.4531"/><ellipse cx="619" cy="50.4531" fill="#ADD1B2" rx="11" ry="11" style="stroke:#A80036;stroke-width:1.0;"/><path d="M621.9688,56.0938 Q621.3906,56.3906 620.75,56.5313 Q620.1094,56.6875 619.4063,56.6875 Q616.9063,56.6875 615.5781,55.0469 Q614.2656,53.3906 614.2656,50.2656 Q614.2656,47.1406 615.5781,45.4844 Q616.9063,43.8281 619.4063,43.8281 Q620.1094,43.8281 620.75,43.9844 Q621.4063,44.1406 621.9688,44.4375 L621.9688,47.1563 Q621.3438,46.5781 620.75,46.3125 Q620.1563,46.0313 619.5313,46.0313 Q618.1875,46.0313 617.5,47.1094 Q616.8125,48.1719 616.8125,50.2656 Q616.8125,52.3594 617.5,53.4375 Q618.1875,54.5 619.5313,54.5 Q620.1563,54.5 620.75,54.2344 Q621.3438,53.9531 621.9688,53.375 L621.9688,56.0938 Z " fill="#000000"/><text fill="#000000" font-family="sans-serif" font-size="12" lengthAdjust="spacing" textLength="132" x="633" y="54.6074">MarketViewConverter</text><line style="stroke:#A80036;stroke-width:1.5;" x1="605" x2="767" y1="66.4531" y2="66.4531"/><line style="stroke:#A80036;stroke-width:1.5;" x1="605" x2="767" y1="74.4531" y2="74.4531"/><!--MD5=[e18579947ffb5f5773df126e9fa52b45]
class Ruben--><rect fill="#FEFECE" filter="url(#fgi6ygszzs4fg)" height="48" id="Ruben" style="stroke:#A80036;stroke-width:1.5;" width="72" x="803" y="34.4531"/><ellipse cx="818" cy="50.4531" fill="#ADD1B2" rx="11" ry="11" style="stroke:#A80036;stroke-width:1.0;"/><path d="M820.9688,56.0938 Q820.3906,56.3906 819.75,56.5313 Q819.1094,56.6875 818.4063,56.6875 Q815.9063,56.6875 814.5781,55.0469 Q813.2656,53.3906 813.2656,50.2656 Q813.2656,47.1406 814.5781,45.4844 Q815.9063,43.8281 818.4063,43.8281 Q819.1094,43.8281 819.75,43.9844 Q820.4063,44.1406 820.9688,44.4375 L820.9688,47.1563 Q820.3438,46.5781 819.75,46.3125 Q819.1563,46.0313 818.5313,46.0313 Q817.1875,46.0313 816.5,47.1094 Q815.8125,48.1719 815.8125,50.2656 Q815.8125,52.3594 816.5,53.4375 Q817.1875,54.5 818.5313,54.5 Q819.1563,54.5 819.75,54.2344 Q820.3438,53.9531 820.9688,53.375 L820.9688,56.0938 Z " fill="#000000"/><text fill="#000000" font-family="sans-serif" font-size="12" lengthAdjust="spacing" textLength="40" x="832" y="54.6074">Ruben</text><line style="stroke:#A80036;stroke-width:1.5;" x1="804" x2="874" y1="66.4531" y2="66.4531"/><line style="stroke:#A80036;stroke-width:1.5;" x1="804" x2="874" y1="74.4531" y2="74.4531"/><!--MD5=[cdf0ebe06761d89322cce6c89f803ae3]
class Mauro--><rect fill="#FEFECE" filter="url(#fgi6ygszzs4fg)" height="48" id="Mauro" style="stroke:#A80036;stroke-width:1.5;" width="71" x="803.5" y="167.9531"/><ellipse cx="818.5" cy="183.9531" fill="#ADD1B2" rx="11" ry="11" style="stroke:#A80036;stroke-width:1.0;"/><path d="M821.4688,189.5938 Q820.8906,189.8906 820.25,190.0313 Q819.6094,190.1875 818.9063,190.1875 Q816.4063,190.1875 815.0781,188.5469 Q813.7656,186.8906 813.7656,183.7656 Q813.7656,180.6406 815.0781,178.9844 Q816.4063,177.3281 818.9063,177.3281 Q819.6094,177.3281 820.25,177.4844 Q820.9063,177.6406 821.4688,177.9375 L821.4688,180.6563 Q820.8438,180.0781 820.25,179.8125 Q819.6563,179.5313 819.0313,179.5313 Q817.6875,179.5313 817,180.6094 Q816.3125,181.6719 816.3125,183.7656 Q816.3125,185.8594 817,186.9375 Q817.6875,188 819.0313,188 Q819.6563,188 820.25,187.7344 Q820.8438,187.4531 821.4688,186.875 L821.4688,189.5938 Z " fill="#000000"/><text fill="#000000" font-family="sans-serif" font-size="12" lengthAdjust="spacing" textLength="39" x="832.5" y="188.1074">Mauro</text><line style="stroke:#A80036;stroke-width:1.5;" x1="804.5" x2="873.5" y1="199.9531" y2="199.9531"/><line style="stroke:#A80036;stroke-width:1.5;" x1="804.5" x2="873.5" y1="207.9531" y2="207.9531"/><!--MD5=[1f6eb8aced7e3b393e9b31a7a4afaeec]
class Fabio--><rect fill="#FEFECE" filter="url(#fgi6ygszzs4fg)" height="48" id="Fabio" style="stroke:#A80036;stroke-width:1.5;" width="66" x="911" y="34.4531"/><ellipse cx="926" cy="50.4531" fill="#ADD1B2" rx="11" ry="11" style="stroke:#A80036;stroke-width:1.0;"/><path d="M928.9688,56.0938 Q928.3906,56.3906 927.75,56.5313 Q927.1094,56.6875 926.4063,56.6875 Q923.9063,56.6875 922.5781,55.0469 Q921.2656,53.3906 921.2656,50.2656 Q921.2656,47.1406 922.5781,45.4844 Q923.9063,43.8281 926.4063,43.8281 Q927.1094,43.8281 927.75,43.9844 Q928.4063,44.1406 928.9688,44.4375 L928.9688,47.1563 Q928.3438,46.5781 927.75,46.3125 Q927.1563,46.0313 926.5313,46.0313 Q925.1875,46.0313 924.5,47.1094 Q923.8125,48.1719 923.8125,50.2656 Q923.8125,52.3594 924.5,53.4375 Q925.1875,54.5 926.5313,54.5 Q927.1563,54.5 927.75,54.2344 Q928.3438,53.9531 928.9688,53.375 L928.9688,56.0938 Z " fill="#000000"/><text fill="#000000" font-family="sans-serif" font-size="12" lengthAdjust="spacing" textLength="34" x="940" y="54.6074">Fabio</text><line style="stroke:#A80036;stroke-width:1.5;" x1="912" x2="976" y1="66.4531" y2="66.4531"/><line style="stroke:#A80036;stroke-width:1.5;" x1="912" x2="976" y1="74.4531" y2="74.4531"/><!--MD5=[076390f66de5797ae99f845634af6fbf]
class Marta--><rect fill="#FEFECE" filter="url(#fgi6ygszzs4fg)" height="48" id="Marta" style="stroke:#A80036;stroke-width:1.5;" width="68" x="910" y="167.9531"/><ellipse cx="925" cy="183.9531" fill="#ADD1B2" rx="11" ry="11" style="stroke:#A80036;stroke-width:1.0;"/><path d="M927.9688,189.5938 Q927.3906,189.8906 926.75,190.0313 Q926.1094,190.1875 925.4063,190.1875 Q922.9063,190.1875 921.5781,188.5469 Q920.2656,186.8906 920.2656,183.7656 Q920.2656,180.6406 921.5781,178.9844 Q922.9063,177.3281 925.4063,177.3281 Q926.1094,177.3281 926.75,177.4844 Q927.4063,177.6406 927.9688,177.9375 L927.9688,180.6563 Q927.3438,180.0781 926.75,179.8125 Q926.1563,179.5313 925.5313,179.5313 Q924.1875,179.5313 923.5,180.6094 Q922.8125,181.6719 922.8125,183.7656 Q922.8125,185.8594 923.5,186.9375 Q924.1875,188 925.5313,188 Q926.1563,188 926.75,187.7344 Q927.3438,187.4531 927.9688,186.875 L927.9688,189.5938 Z " fill="#000000"/><text fill="#000000" font-family="sans-serif" font-size="12" lengthAdjust="spacing" textLength="36" x="939" y="188.1074">Marta</text><line style="stroke:#A80036;stroke-width:1.5;" x1="911" x2="977" y1="199.9531" y2="199.9531"/><line style="stroke:#A80036;stroke-width:1.5;" x1="911" x2="977" y1="207.9531" y2="207.9531"/><!--MD5=[14d61b089565140f68ac5d729f60621c]
reverse link MarketViewUpdateListener to MarketChange--><path codeLine="18" d="M194.2,96.9231 C231.97,113.1631 276.36,132.2331 315.25,148.9431 " fill="none" id="MarketViewUpdateListener-backto-MarketChange" style="stroke:#A80036;stroke-width:1.0;stroke-dasharray:7.0,7.0;"/><polygon fill="none" points="191.28,103.2931,175.67,88.9631,196.81,90.4331,191.28,103.2931" style="stroke:#A80036;stroke-width:1.0;"/><!--MD5=[1a17d40fa72cc5ff47539ea2952d981b]
link ValidatorEngine to MarketChange--><path codeLine="19" d="M479.57,93.6831 C470.38,107.1231 448.5876,138.9504 448.5876,138.9504 " fill="none" id="ValidatorEngine-MarketChange" style="stroke:#A80036;stroke-width:1.0;"/><polygon fill="#FFFFFF" points="441.81,148.8531,448.4997,146.161,448.5876,138.9504,441.8979,141.6426,441.81,148.8531" style="stroke:#A80036;stroke-width:1.0;"/><polygon fill="#A80036" points="487.12,82.6631,478.7406,87.8386,484.2997,86.7918,485.3465,92.351,487.12,82.6631" style="stroke:#A80036;stroke-width:1.0;"/><line style="stroke:#A80036;stroke-width:1.0;" x1="484.2997" x2="479.775" y1="86.7918" y2="93.3881"/><!--MD5=[645c79933bfad7716ea703c46983892a]
link MarketViewConverter to MarketChange--><path codeLine="20" d="M626.08,88.3131 C592.82,104.3331 511.1362,143.6961 511.1362,143.6961 " fill="none" id="MarketViewConverter-MarketChange" style="stroke:#A80036;stroke-width:1.0;"/><polygon fill="#FFFFFF" points="500.32,148.8931,507.4605,149.9,511.1362,143.6961,503.9958,142.6892,500.32,148.8931" style="stroke:#A80036;stroke-width:1.0;"/><polygon fill="#A80036" points="638.13,82.5131,628.2858,82.8153,633.6254,84.683,631.7576,90.0226,638.13,82.5131" style="stroke:#A80036;stroke-width:1.0;"/><line style="stroke:#A80036;stroke-width:1.0;" x1="633.6254" x2="626.425" y1="84.683" y2="88.1531"/><!--MD5=[d1a188c77405f1b03f9f51fb5c58c4bf]
link MarketProcessorPort to MarketChange--><path codeLine="21" d="M345.69,93.6831 C355.08,107.2531 377.0381,138.9878 377.0381,138.9878 " fill="none" id="MarketProcessorPort-MarketChange" style="stroke:#A80036;stroke-width:1.0;"/><polygon fill="#FFFFFF" points="383.87,148.8531,383.7425,141.6431,377.0381,138.9878,377.1656,146.1977,383.87,148.8531" style="stroke:#A80036;stroke-width:1.0;"/><polygon fill="#A80036" points="338.06,82.6631,339.8955,92.3394,340.9066,86.7737,346.4724,87.7848,338.06,82.6631" style="stroke:#A80036;stroke-width:1.0;"/><line style="stroke:#A80036;stroke-width:1.0;" x1="340.9066" x2="345.46" y1="86.7737" y2="93.3531"/><!--MD5=[3956c09142876c000b636054257ca75d]
link Ruben to Mauro--><path codeLine="22" d="M839,95.6831 C839,113.9631 839,155.5331 839,155.5331 " fill="none" id="Ruben-Mauro" style="stroke:#A80036;stroke-width:1.0;"/><polygon fill="#FFFFFF" points="839,167.5331,843,161.5331,839,155.5331,835,161.5331,839,167.5331" style="stroke:#A80036;stroke-width:1.0;"/><polygon fill="#A80036" points="839,82.6631,835,91.6631,839,87.6631,843,91.6631,839,82.6631" style="stroke:#A80036;stroke-width:1.0;"/><line style="stroke:#A80036;stroke-width:1.0;" x1="839" x2="839" y1="87.6631" y2="95.6631"/><!--MD5=[065ac1734cd3f10b32be98e8ce676829]
link Fabio to Marta--><path codeLine="23" d="M944,95.6831 C944,113.9631 944,155.5331 944,155.5331 " fill="none" id="Fabio-Marta" style="stroke:#A80036;stroke-width:1.0;"/><polygon fill="#FFFFFF" points="944,167.5331,948,161.5331,944,155.5331,940,161.5331,944,167.5331" style="stroke:#A80036;stroke-width:1.0;"/><polygon fill="#A80036" points="944,82.6631,940,91.6631,944,87.6631,948,91.6631,944,82.6631" style="stroke:#A80036;stroke-width:1.0;"/><line style="stroke:#A80036;stroke-width:1.0;" x1="944" x2="944" y1="87.6631" y2="95.6631"/><!--MD5=[c2f9cd044f13da1e080f75d7a661aaa6]
@startuml
skinparam backgroundColor white

title Market Change Flow Class Diagram

class MarketChange{
validatorEngine: ValidatorEngine
markerViewConverter: MarketViewConverter
marketProcessor: MarketProcessor
}

interface MarketViewUpdateListener{
onMarketViewUpdates()
}

interface MarketProcessorPort{
}

MarketViewUpdateListener <|.. MarketChange
ValidatorEngine <- -o MarketChange
MarketViewConverter <- -o MarketChange
MarketProcessorPort <- -o MarketChange
Ruben <- -o Mauro
Fabio <- -o Marta

@enduml

PlantUML version 1.2021.7(Sun May 23 12:40:07 UTC 2021)
(GPL source distribution)
Java Runtime: OpenJDK Runtime Environment
JVM: OpenJDK 64-Bit Server VM
Default Encoding: UTF-8
Language: en
Country: null
--></g></svg>