<?xml version="1.0" encoding="UTF-8" standalone="no"?><svg xmlns="http://www.w3.org/2000/svg" xmlns:xlink="http://www.w3.org/1999/xlink" contentScriptType="application/ecmascript" contentStyleType="text/css" height="249px" preserveAspectRatio="none" style="width:782px;height:249px;" version="1.1" viewBox="0 0 782 249" width="782px" zoomAndPan="magnify"><defs><filter height="300%" id="f3k2r6qlw8y9z" width="300%" x="-1" y="-1"><feGaussianBlur result="blurOut" stdDeviation="2.0"/><feColorMatrix in="blurOut" result="blurOut2" type="matrix" values="0 0 0 0 0 0 0 0 0 0 0 0 0 0 0 0 0 0 .4 0"/><feOffset dx="4.0" dy="4.0" in="blurOut2" result="blurOut3"/><feBlend in="SourceGraphic" in2="blurOut3" mode="normal"/></filter></defs><g><text fill="#000000" font-family="sans-serif" font-size="18" lengthAdjust="spacing" textLength="320" x="224.5" y="16.708">Product Change Flow Class Diagram</text><!--MD5=[7d69857d9c591b90ff900af33446de81]
class ProductChangeListener--><rect codeLine="4" fill="#FEFECE" filter="url(#f3k2r6qlw8y9z)" height="86.4141" id="ProductChangeListener" style="stroke:#A80036;stroke-width:1.5;" width="263" x="280.5" y="148.9531"/><ellipse cx="334.25" cy="164.9531" fill="#ADD1B2" rx="11" ry="11" style="stroke:#A80036;stroke-width:1.0;"/><path d="M337.2188,170.5938 Q336.6406,170.8906 336,171.0313 Q335.3594,171.1875 334.6563,171.1875 Q332.1563,171.1875 330.8281,169.5469 Q329.5156,167.8906 329.5156,164.7656 Q329.5156,161.6406 330.8281,159.9844 Q332.1563,158.3281 334.6563,158.3281 Q335.3594,158.3281 336,158.4844 Q336.6563,158.6406 337.2188,158.9375 L337.2188,161.6563 Q336.5938,161.0781 336,160.8125 Q335.4063,160.5313 334.7813,160.5313 Q333.4375,160.5313 332.75,161.6094 Q332.0625,162.6719 332.0625,164.7656 Q332.0625,166.8594 332.75,167.9375 Q333.4375,169 334.7813,169 Q335.4063,169 336,168.7344 Q336.5938,168.4531 337.2188,167.875 L337.2188,170.5938 Z " fill="#000000"/><text fill="#000000" font-family="sans-serif" font-size="12" lengthAdjust="spacing" textLength="147" x="354.75" y="169.1074">ProductChangeListener</text><line style="stroke:#A80036;stroke-width:1.5;" x1="281.5" x2="542.5" y1="180.9531" y2="180.9531"/><text fill="#000000" font-family="sans-serif" font-size="11" lengthAdjust="spacing" textLength="183" x="286.5" y="195.1636">validatorEngine: ValidatorEngine</text><text fill="#000000" font-family="sans-serif" font-size="11" lengthAdjust="spacing" textLength="251" x="286.5" y="207.9683">markerViewConverter: MarketViewConverter</text><text fill="#000000" font-family="sans-serif" font-size="11" lengthAdjust="spacing" textLength="202" x="286.5" y="220.7729">marketProcessor: MarketProcessor</text><line style="stroke:#A80036;stroke-width:1.5;" x1="281.5" x2="542.5" y1="227.3672" y2="227.3672"/><!--MD5=[785be742bed23c383deb66037eb486fd]
class MarketViewUpdateListener--><rect codeLine="10" fill="#FEFECE" filter="url(#f3k2r6qlw8y9z)" height="60.8047" id="MarketViewUpdateListener" style="stroke:#A80036;stroke-width:1.5;" width="200" x="7" y="27.9531"/><ellipse cx="22" cy="43.9531" fill="#B4A7E5" rx="11" ry="11" style="stroke:#A80036;stroke-width:1.0;"/><path d="M17.9219,39.7188 L17.9219,37.5625 L25.3125,37.5625 L25.3125,39.7188 L22.8438,39.7188 L22.8438,47.7969 L25.3125,47.7969 L25.3125,49.9531 L17.9219,49.9531 L17.9219,47.7969 L20.3906,47.7969 L20.3906,39.7188 L17.9219,39.7188 Z " fill="#000000"/><text fill="#000000" font-family="sans-serif" font-size="12" font-style="italic" lengthAdjust="spacing" textLength="168" x="36" y="48.1074">MarketViewUpdateListener</text><line style="stroke:#A80036;stroke-width:1.5;" x1="8" x2="206" y1="59.9531" y2="59.9531"/><line style="stroke:#A80036;stroke-width:1.5;" x1="8" x2="206" y1="67.9531" y2="67.9531"/><text fill="#000000" font-family="sans-serif" font-size="11" lengthAdjust="spacing" textLength="133" x="13" y="82.1636">onMarketViewUpdates()</text><!--MD5=[a30d656938bd8ae28e0ee0a7242fa658]
class MarketProcessorPort--><rect codeLine="14" fill="#FEFECE" filter="url(#f3k2r6qlw8y9z)" height="48" id="MarketProcessorPort" style="stroke:#A80036;stroke-width:1.5;" width="160" x="242" y="34.4531"/><ellipse cx="257" cy="50.4531" fill="#B4A7E5" rx="11" ry="11" style="stroke:#A80036;stroke-width:1.0;"/><path d="M252.9219,46.2188 L252.9219,44.0625 L260.3125,44.0625 L260.3125,46.2188 L257.8438,46.2188 L257.8438,54.2969 L260.3125,54.2969 L260.3125,56.4531 L252.9219,56.4531 L252.9219,54.2969 L255.3906,54.2969 L255.3906,46.2188 L252.9219,46.2188 Z " fill="#000000"/><text fill="#000000" font-family="sans-serif" font-size="12" font-style="italic" lengthAdjust="spacing" textLength="128" x="271" y="54.6074">MarketProcessorPort</text><line style="stroke:#A80036;stroke-width:1.5;" x1="243" x2="401" y1="66.4531" y2="66.4531"/><line style="stroke:#A80036;stroke-width:1.5;" x1="243" x2="401" y1="74.4531" y2="74.4531"/><!--MD5=[029fb73276769b73c70d00c525700cc7]
class ValidatorEngine--><rect fill="#FEFECE" filter="url(#f3k2r6qlw8y9z)" height="48" id="ValidatorEngine" style="stroke:#A80036;stroke-width:1.5;" width="131" x="437.5" y="34.4531"/><ellipse cx="452.5" cy="50.4531" fill="#ADD1B2" rx="11" ry="11" style="stroke:#A80036;stroke-width:1.0;"/><path d="M455.4688,56.0938 Q454.8906,56.3906 454.25,56.5313 Q453.6094,56.6875 452.9063,56.6875 Q450.4063,56.6875 449.0781,55.0469 Q447.7656,53.3906 447.7656,50.2656 Q447.7656,47.1406 449.0781,45.4844 Q450.4063,43.8281 452.9063,43.8281 Q453.6094,43.8281 454.25,43.9844 Q454.9063,44.1406 455.4688,44.4375 L455.4688,47.1563 Q454.8438,46.5781 454.25,46.3125 Q453.6563,46.0313 453.0313,46.0313 Q451.6875,46.0313 451,47.1094 Q450.3125,48.1719 450.3125,50.2656 Q450.3125,52.3594 451,53.4375 Q451.6875,54.5 453.0313,54.5 Q453.6563,54.5 454.25,54.2344 Q454.8438,53.9531 455.4688,53.375 L455.4688,56.0938 Z " fill="#000000"/><text fill="#000000" font-family="sans-serif" font-size="12" lengthAdjust="spacing" textLength="99" x="466.5" y="54.6074">ValidatorEngine</text><line style="stroke:#A80036;stroke-width:1.5;" x1="438.5" x2="567.5" y1="66.4531" y2="66.4531"/><line style="stroke:#A80036;stroke-width:1.5;" x1="438.5" x2="567.5" y1="74.4531" y2="74.4531"/><!--MD5=[12011b7699b9c8c3b57a021ce13873c1]
class MarketViewConverter--><rect fill="#FEFECE" filter="url(#f3k2r6qlw8y9z)" height="48" id="MarketViewConverter" style="stroke:#A80036;stroke-width:1.5;" width="164" x="604" y="34.4531"/><ellipse cx="619" cy="50.4531" fill="#ADD1B2" rx="11" ry="11" style="stroke:#A80036;stroke-width:1.0;"/><path d="M621.9688,56.0938 Q621.3906,56.3906 620.75,56.5313 Q620.1094,56.6875 619.4063,56.6875 Q616.9063,56.6875 615.5781,55.0469 Q614.2656,53.3906 614.2656,50.2656 Q614.2656,47.1406 615.5781,45.4844 Q616.9063,43.8281 619.4063,43.8281 Q620.1094,43.8281 620.75,43.9844 Q621.4063,44.1406 621.9688,44.4375 L621.9688,47.1563 Q621.3438,46.5781 620.75,46.3125 Q620.1563,46.0313 619.5313,46.0313 Q618.1875,46.0313 617.5,47.1094 Q616.8125,48.1719 616.8125,50.2656 Q616.8125,52.3594 617.5,53.4375 Q618.1875,54.5 619.5313,54.5 Q620.1563,54.5 620.75,54.2344 Q621.3438,53.9531 621.9688,53.375 L621.9688,56.0938 Z " fill="#000000"/><text fill="#000000" font-family="sans-serif" font-size="12" lengthAdjust="spacing" textLength="132" x="633" y="54.6074">MarketViewConverter</text><line style="stroke:#A80036;stroke-width:1.5;" x1="605" x2="767" y1="66.4531" y2="66.4531"/><line style="stroke:#A80036;stroke-width:1.5;" x1="605" x2="767" y1="74.4531" y2="74.4531"/><!--MD5=[4b204867222824bde9c827d71aded838]
reverse link MarketViewUpdateListener to ProductChangeListener--><path codeLine="17" d="M193.91,96.9231 C231.57,113.1631 275.81,132.2331 314.57,148.9431 " fill="none" id="MarketViewUpdateListener-backto-ProductChangeListener" style="stroke:#A80036;stroke-width:1.0;stroke-dasharray:7.0,7.0;"/><polygon fill="none" points="191.04,103.3131,175.45,88.9631,196.59,90.4531,191.04,103.3131" style="stroke:#A80036;stroke-width:1.0;"/><!--MD5=[61ee8b627866831797894558e3d542e3]
link ValidatorEngine to ProductChangeListener--><path codeLine="18" d="M479.31,93.6831 C469.92,107.2531 447.9619,138.9878 447.9619,138.9878 " fill="none" id="ValidatorEngine-ProductChangeListener" style="stroke:#A80036;stroke-width:1.0;"/><polygon fill="#FFFFFF" points="441.13,148.8531,447.8344,146.1977,447.9619,138.9878,441.2575,141.6431,441.13,148.8531" style="stroke:#A80036;stroke-width:1.0;"/><polygon fill="#A80036" points="486.94,82.6631,478.5276,87.7848,484.0934,86.7737,485.1045,92.3394,486.94,82.6631" style="stroke:#A80036;stroke-width:1.0;"/><line style="stroke:#A80036;stroke-width:1.0;" x1="484.0934" x2="479.54" y1="86.7737" y2="93.3531"/><!--MD5=[6a0ca80d4f10e35fc07b32e2b055e6a5]
link MarketViewConverter to ProductChangeListener--><path codeLine="19" d="M625.86,88.3131 C592.34,104.4031 510.4587,143.7012 510.4587,143.7012 " fill="none" id="MarketViewConverter-ProductChangeListener" style="stroke:#A80036;stroke-width:1.0;"/><polygon fill="#FFFFFF" points="499.64,148.8931,506.78,149.9034,510.4587,143.7012,503.3187,142.6909,499.64,148.8931" style="stroke:#A80036;stroke-width:1.0;"/><polygon fill="#A80036" points="637.96,82.5131,628.1155,82.8055,633.4532,84.6786,631.5802,90.0163,637.96,82.5131" style="stroke:#A80036;stroke-width:1.0;"/><line style="stroke:#A80036;stroke-width:1.0;" x1="633.4532" x2="626.24" y1="84.6786" y2="88.1331"/><!--MD5=[6858e1ba9874861f6437e1f5c61d9106]
link MarketProcessorPort to ProductChangeListener--><path codeLine="20" d="M345.43,93.6831 C354.62,107.1231 376.4124,138.9504 376.4124,138.9504 " fill="none" id="MarketProcessorPort-ProductChangeListener" style="stroke:#A80036;stroke-width:1.0;"/><polygon fill="#FFFFFF" points="383.19,148.8531,383.1021,141.6426,376.4124,138.9504,376.5003,146.161,383.19,148.8531" style="stroke:#A80036;stroke-width:1.0;"/><polygon fill="#A80036" points="337.88,82.6631,339.6535,92.351,340.7003,86.7918,346.2594,87.8386,337.88,82.6631" style="stroke:#A80036;stroke-width:1.0;"/><line style="stroke:#A80036;stroke-width:1.0;" x1="340.7003" x2="345.225" y1="86.7918" y2="93.3881"/><!--MD5=[3162155fd817c581e9d3ba05c7a8ab9f]
@startuml

title Product Change Flow Class Diagram

class ProductChangeListener{
validatorEngine: ValidatorEngine
markerViewConverter: MarketViewConverter
marketProcessor: MarketProcessor
}

interface MarketViewUpdateListener{
onMarketViewUpdates()
}

interface MarketProcessorPort{
}

MarketViewUpdateListener <|.. ProductChangeListener
ValidatorEngine <- -o ProductChangeListener
MarketViewConverter <- -o ProductChangeListener
MarketProcessorPort <- -o ProductChangeListener

@enduml

PlantUML version 1.2021.5(Sun Apr 25 11:20:28 UTC 2021)
(GPL source distribution)
Java Runtime: OpenJDK Runtime Environment
JVM: OpenJDK 64-Bit Server VM
Default Encoding: UTF-8
Language: en
Country: null
--></g></svg>