<?xml version="1.0" encoding="UTF-8" standalone="no"?><svg xmlns="http://www.w3.org/2000/svg" xmlns:xlink="http://www.w3.org/1999/xlink" contentScriptType="application/ecmascript" contentStyleType="text/css" height="248px" preserveAspectRatio="none" style="width:1292px;height:248px;background:#FFFFFF;" version="1.1" viewBox="0 0 1292 248" width="1292px" zoomAndPan="magnify"><defs><filter height="300%" id="f1ogwpdvbu761n" width="300%" x="-1" y="-1"><feGaussianBlur result="blurOut" stdDeviation="2.0"/><feColorMatrix in="blurOut" result="blurOut2" type="matrix" values="0 0 0 0 0 0 0 0 0 0 0 0 0 0 0 0 0 0 .4 0"/><feOffset dx="4.0" dy="4.0" in="blurOut2" result="blurOut3"/><feBlend in="SourceGraphic" in2="blurOut3" mode="normal"/></filter></defs><g><text fill="#000000" font-family="sans-serif" font-size="18" lengthAdjust="spacing" textLength="176" x="551.75" y="16.708">SEM BACKGROUND</text><!--MD5=[3db0bcc86f916f1977710fc3688fdc9d]
class SEMBACKGROUND--><rect codeLine="14" fill="#FEFECE" filter="url(#f1ogwpdvbu761n)" height="99.2188" id="SEMBACKGROUND" style="stroke:#A80036;stroke-width:1.5;" width="263" x="7" y="27.9531"/><ellipse cx="79.25" cy="43.9531" fill="#B4A7E5" rx="11" ry="11" style="stroke:#A80036;stroke-width:1.0;"/><path d="M75.1719,39.7188 L75.1719,37.5625 L82.5625,37.5625 L82.5625,39.7188 L80.0938,39.7188 L80.0938,47.7969 L82.5625,47.7969 L82.5625,49.9531 L75.1719,49.9531 L75.1719,47.7969 L77.6406,47.7969 L77.6406,39.7188 L75.1719,39.7188 Z " fill="#000000"/><text fill="#000000" font-family="sans-serif" font-size="12" font-style="italic" lengthAdjust="spacing" textLength="110" x="99.75" y="48.1074">SEMBACKGROUND</text><line style="stroke:#A80036;stroke-width:1.5;" x1="8" x2="269" y1="59.9531" y2="59.9531"/><text fill="#000000" font-family="sans-serif" font-size="11" lengthAdjust="spacing" textLength="183" x="13" y="74.1636">validatorEngine: ValidatorEngine</text><text fill="#000000" font-family="sans-serif" font-size="11" lengthAdjust="spacing" textLength="251" x="13" y="86.9683">markerViewConverter: MarketViewConverter</text><text fill="#000000" font-family="sans-serif" font-size="11" lengthAdjust="spacing" textLength="202" x="13" y="99.7729">marketProcessor: MarketProcessor</text><line style="stroke:#A80036;stroke-width:1.5;" x1="8" x2="269" y1="106.3672" y2="106.3672"/><text fill="#000000" font-family="sans-serif" font-size="11" lengthAdjust="spacing" textLength="133" x="13" y="120.5776">onMarketViewUpdates()</text><!--MD5=[785be742bed23c383deb66037eb486fd]
class MarketViewUpdateListener--><rect fill="#FEFECE" filter="url(#f1ogwpdvbu761n)" height="48" id="MarketViewUpdateListener" style="stroke:#A80036;stroke-width:1.5;" width="199" x="305" y="53.4531"/><ellipse cx="320" cy="69.4531" fill="#ADD1B2" rx="11" ry="11" style="stroke:#A80036;stroke-width:1.0;"/><path d="M322.9688,75.0938 Q322.3906,75.3906 321.75,75.5313 Q321.1094,75.6875 320.4063,75.6875 Q317.9063,75.6875 316.5781,74.0469 Q315.2656,72.3906 315.2656,69.2656 Q315.2656,66.1406 316.5781,64.4844 Q317.9063,62.8281 320.4063,62.8281 Q321.1094,62.8281 321.75,62.9844 Q322.4063,63.1406 322.9688,63.4375 L322.9688,66.1563 Q322.3438,65.5781 321.75,65.3125 Q321.1563,65.0313 320.5313,65.0313 Q319.1875,65.0313 318.5,66.1094 Q317.8125,67.1719 317.8125,69.2656 Q317.8125,71.3594 318.5,72.4375 Q319.1875,73.5 320.5313,73.5 Q321.1563,73.5 321.75,73.2344 Q322.3438,72.9531 322.9688,72.375 L322.9688,75.0938 Z " fill="#000000"/><text fill="#000000" font-family="sans-serif" font-size="12" lengthAdjust="spacing" textLength="167" x="334" y="73.6074">MarketViewUpdateListener</text><line style="stroke:#A80036;stroke-width:1.5;" x1="306" x2="503" y1="85.4531" y2="85.4531"/><line style="stroke:#A80036;stroke-width:1.5;" x1="306" x2="503" y1="93.4531" y2="93.4531"/><!--MD5=[cecbc9c4695074a1e2dd2d1bf6bbd955]
class MarketChange--><rect fill="#FEFECE" filter="url(#f1ogwpdvbu761n)" height="48" id="MarketChange" style="stroke:#A80036;stroke-width:1.5;" width="123" x="635" y="186.9531"/><ellipse cx="650" cy="202.9531" fill="#ADD1B2" rx="11" ry="11" style="stroke:#A80036;stroke-width:1.0;"/><path d="M652.9688,208.5938 Q652.3906,208.8906 651.75,209.0313 Q651.1094,209.1875 650.4063,209.1875 Q647.9063,209.1875 646.5781,207.5469 Q645.2656,205.8906 645.2656,202.7656 Q645.2656,199.6406 646.5781,197.9844 Q647.9063,196.3281 650.4063,196.3281 Q651.1094,196.3281 651.75,196.4844 Q652.4063,196.6406 652.9688,196.9375 L652.9688,199.6563 Q652.3438,199.0781 651.75,198.8125 Q651.1563,198.5313 650.5313,198.5313 Q649.1875,198.5313 648.5,199.6094 Q647.8125,200.6719 647.8125,202.7656 Q647.8125,204.8594 648.5,205.9375 Q649.1875,207 650.5313,207 Q651.1563,207 651.75,206.7344 Q652.3438,206.4531 652.9688,205.875 L652.9688,208.5938 Z " fill="#000000"/><text fill="#000000" font-family="sans-serif" font-size="12" lengthAdjust="spacing" textLength="91" x="664" y="207.1074">MarketChange</text><line style="stroke:#A80036;stroke-width:1.5;" x1="636" x2="757" y1="218.9531" y2="218.9531"/><line style="stroke:#A80036;stroke-width:1.5;" x1="636" x2="757" y1="226.9531" y2="226.9531"/><!--MD5=[029fb73276769b73c70d00c525700cc7]
class ValidatorEngine--><rect fill="#FEFECE" filter="url(#f1ogwpdvbu761n)" height="48" id="ValidatorEngine" style="stroke:#A80036;stroke-width:1.5;" width="131" x="539" y="53.4531"/><ellipse cx="554" cy="69.4531" fill="#ADD1B2" rx="11" ry="11" style="stroke:#A80036;stroke-width:1.0;"/><path d="M556.9688,75.0938 Q556.3906,75.3906 555.75,75.5313 Q555.1094,75.6875 554.4063,75.6875 Q551.9063,75.6875 550.5781,74.0469 Q549.2656,72.3906 549.2656,69.2656 Q549.2656,66.1406 550.5781,64.4844 Q551.9063,62.8281 554.4063,62.8281 Q555.1094,62.8281 555.75,62.9844 Q556.4063,63.1406 556.9688,63.4375 L556.9688,66.1563 Q556.3438,65.5781 555.75,65.3125 Q555.1563,65.0313 554.5313,65.0313 Q553.1875,65.0313 552.5,66.1094 Q551.8125,67.1719 551.8125,69.2656 Q551.8125,71.3594 552.5,72.4375 Q553.1875,73.5 554.5313,73.5 Q555.1563,73.5 555.75,73.2344 Q556.3438,72.9531 556.9688,72.375 L556.9688,75.0938 Z " fill="#000000"/><text fill="#000000" font-family="sans-serif" font-size="12" lengthAdjust="spacing" textLength="99" x="568" y="73.6074">ValidatorEngine</text><line style="stroke:#A80036;stroke-width:1.5;" x1="540" x2="669" y1="85.4531" y2="85.4531"/><line style="stroke:#A80036;stroke-width:1.5;" x1="540" x2="669" y1="93.4531" y2="93.4531"/><!--MD5=[12011b7699b9c8c3b57a021ce13873c1]
class MarketViewConverter--><rect fill="#FEFECE" filter="url(#f1ogwpdvbu761n)" height="48" id="MarketViewConverter" style="stroke:#A80036;stroke-width:1.5;" width="164" x="705.5" y="53.4531"/><ellipse cx="720.5" cy="69.4531" fill="#ADD1B2" rx="11" ry="11" style="stroke:#A80036;stroke-width:1.0;"/><path d="M723.4688,75.0938 Q722.8906,75.3906 722.25,75.5313 Q721.6094,75.6875 720.9063,75.6875 Q718.4063,75.6875 717.0781,74.0469 Q715.7656,72.3906 715.7656,69.2656 Q715.7656,66.1406 717.0781,64.4844 Q718.4063,62.8281 720.9063,62.8281 Q721.6094,62.8281 722.25,62.9844 Q722.9063,63.1406 723.4688,63.4375 L723.4688,66.1563 Q722.8438,65.5781 722.25,65.3125 Q721.6563,65.0313 721.0313,65.0313 Q719.6875,65.0313 719,66.1094 Q718.3125,67.1719 718.3125,69.2656 Q718.3125,71.3594 719,72.4375 Q719.6875,73.5 721.0313,73.5 Q721.6563,73.5 722.25,73.2344 Q722.8438,72.9531 723.4688,72.375 L723.4688,75.0938 Z " fill="#000000"/><text fill="#000000" font-family="sans-serif" font-size="12" lengthAdjust="spacing" textLength="132" x="734.5" y="73.6074">MarketViewConverter</text><line style="stroke:#A80036;stroke-width:1.5;" x1="706.5" x2="868.5" y1="85.4531" y2="85.4531"/><line style="stroke:#A80036;stroke-width:1.5;" x1="706.5" x2="868.5" y1="93.4531" y2="93.4531"/><!--MD5=[a30d656938bd8ae28e0ee0a7242fa658]
class MarketProcessorPort--><rect fill="#FEFECE" filter="url(#f1ogwpdvbu761n)" height="48" id="MarketProcessorPort" style="stroke:#A80036;stroke-width:1.5;" width="164" x="904.5" y="53.4531"/><ellipse cx="919.5" cy="69.4531" fill="#ADD1B2" rx="11" ry="11" style="stroke:#A80036;stroke-width:1.0;"/><path d="M922.4688,75.0938 Q921.8906,75.3906 921.25,75.5313 Q920.6094,75.6875 919.9063,75.6875 Q917.4063,75.6875 916.0781,74.0469 Q914.7656,72.3906 914.7656,69.2656 Q914.7656,66.1406 916.0781,64.4844 Q917.4063,62.8281 919.9063,62.8281 Q920.6094,62.8281 921.25,62.9844 Q921.9063,63.1406 922.4688,63.4375 L922.4688,66.1563 Q921.8438,65.5781 921.25,65.3125 Q920.6563,65.0313 920.0313,65.0313 Q918.6875,65.0313 918,66.1094 Q917.3125,67.1719 917.3125,69.2656 Q917.3125,71.3594 918,72.4375 Q918.6875,73.5 920.0313,73.5 Q920.6563,73.5 921.25,73.2344 Q921.8438,72.9531 922.4688,72.375 L922.4688,75.0938 Z " fill="#000000"/><text fill="#000000" font-family="sans-serif" font-size="12" lengthAdjust="spacing" textLength="132" x="933.5" y="73.6074">MarketProcessorPort</text><line style="stroke:#A80036;stroke-width:1.5;" x1="905.5" x2="1067.5" y1="85.4531" y2="85.4531"/><line style="stroke:#A80036;stroke-width:1.5;" x1="905.5" x2="1067.5" y1="93.4531" y2="93.4531"/><!--MD5=[e18579947ffb5f5773df126e9fa52b45]
class Ruben--><rect fill="#FEFECE" filter="url(#f1ogwpdvbu761n)" height="48" id="Ruben" style="stroke:#A80036;stroke-width:1.5;" width="72" x="1103.5" y="53.4531"/><ellipse cx="1118.5" cy="69.4531" fill="#ADD1B2" rx="11" ry="11" style="stroke:#A80036;stroke-width:1.0;"/><path d="M1121.4688,75.0938 Q1120.8906,75.3906 1120.25,75.5313 Q1119.6094,75.6875 1118.9063,75.6875 Q1116.4063,75.6875 1115.0781,74.0469 Q1113.7656,72.3906 1113.7656,69.2656 Q1113.7656,66.1406 1115.0781,64.4844 Q1116.4063,62.8281 1118.9063,62.8281 Q1119.6094,62.8281 1120.25,62.9844 Q1120.9063,63.1406 1121.4688,63.4375 L1121.4688,66.1563 Q1120.8438,65.5781 1120.25,65.3125 Q1119.6563,65.0313 1119.0313,65.0313 Q1117.6875,65.0313 1117,66.1094 Q1116.3125,67.1719 1116.3125,69.2656 Q1116.3125,71.3594 1117,72.4375 Q1117.6875,73.5 1119.0313,73.5 Q1119.6563,73.5 1120.25,73.2344 Q1120.8438,72.9531 1121.4688,72.375 L1121.4688,75.0938 Z " fill="#000000"/><text fill="#000000" font-family="sans-serif" font-size="12" lengthAdjust="spacing" textLength="40" x="1132.5" y="73.6074">Ruben</text><line style="stroke:#A80036;stroke-width:1.5;" x1="1104.5" x2="1174.5" y1="85.4531" y2="85.4531"/><line style="stroke:#A80036;stroke-width:1.5;" x1="1104.5" x2="1174.5" y1="93.4531" y2="93.4531"/><!--MD5=[cdf0ebe06761d89322cce6c89f803ae3]
class Mauro--><rect fill="#FEFECE" filter="url(#f1ogwpdvbu761n)" height="48" id="Mauro" style="stroke:#A80036;stroke-width:1.5;" width="71" x="1104" y="186.9531"/><ellipse cx="1119" cy="202.9531" fill="#ADD1B2" rx="11" ry="11" style="stroke:#A80036;stroke-width:1.0;"/><path d="M1121.9688,208.5938 Q1121.3906,208.8906 1120.75,209.0313 Q1120.1094,209.1875 1119.4063,209.1875 Q1116.9063,209.1875 1115.5781,207.5469 Q1114.2656,205.8906 1114.2656,202.7656 Q1114.2656,199.6406 1115.5781,197.9844 Q1116.9063,196.3281 1119.4063,196.3281 Q1120.1094,196.3281 1120.75,196.4844 Q1121.4063,196.6406 1121.9688,196.9375 L1121.9688,199.6563 Q1121.3438,199.0781 1120.75,198.8125 Q1120.1563,198.5313 1119.5313,198.5313 Q1118.1875,198.5313 1117.5,199.6094 Q1116.8125,200.6719 1116.8125,202.7656 Q1116.8125,204.8594 1117.5,205.9375 Q1118.1875,207 1119.5313,207 Q1120.1563,207 1120.75,206.7344 Q1121.3438,206.4531 1121.9688,205.875 L1121.9688,208.5938 Z " fill="#000000"/><text fill="#000000" font-family="sans-serif" font-size="12" lengthAdjust="spacing" textLength="39" x="1133" y="207.1074">Mauro</text><line style="stroke:#A80036;stroke-width:1.5;" x1="1105" x2="1174" y1="218.9531" y2="218.9531"/><line style="stroke:#A80036;stroke-width:1.5;" x1="1105" x2="1174" y1="226.9531" y2="226.9531"/><!--MD5=[1f6eb8aced7e3b393e9b31a7a4afaeec]
class Fabio--><rect fill="#FEFECE" filter="url(#f1ogwpdvbu761n)" height="48" id="Fabio" style="stroke:#A80036;stroke-width:1.5;" width="66" x="1211.5" y="53.4531"/><ellipse cx="1226.5" cy="69.4531" fill="#ADD1B2" rx="11" ry="11" style="stroke:#A80036;stroke-width:1.0;"/><path d="M1229.4688,75.0938 Q1228.8906,75.3906 1228.25,75.5313 Q1227.6094,75.6875 1226.9063,75.6875 Q1224.4063,75.6875 1223.0781,74.0469 Q1221.7656,72.3906 1221.7656,69.2656 Q1221.7656,66.1406 1223.0781,64.4844 Q1224.4063,62.8281 1226.9063,62.8281 Q1227.6094,62.8281 1228.25,62.9844 Q1228.9063,63.1406 1229.4688,63.4375 L1229.4688,66.1563 Q1228.8438,65.5781 1228.25,65.3125 Q1227.6563,65.0313 1227.0313,65.0313 Q1225.6875,65.0313 1225,66.1094 Q1224.3125,67.1719 1224.3125,69.2656 Q1224.3125,71.3594 1225,72.4375 Q1225.6875,73.5 1227.0313,73.5 Q1227.6563,73.5 1228.25,73.2344 Q1228.8438,72.9531 1229.4688,72.375 L1229.4688,75.0938 Z " fill="#000000"/><text fill="#000000" font-family="sans-serif" font-size="12" lengthAdjust="spacing" textLength="34" x="1240.5" y="73.6074">Fabio</text><line style="stroke:#A80036;stroke-width:1.5;" x1="1212.5" x2="1276.5" y1="85.4531" y2="85.4531"/><line style="stroke:#A80036;stroke-width:1.5;" x1="1212.5" x2="1276.5" y1="93.4531" y2="93.4531"/><!--MD5=[076390f66de5797ae99f845634af6fbf]
class Marta--><rect fill="#FEFECE" filter="url(#f1ogwpdvbu761n)" height="48" id="Marta" style="stroke:#A80036;stroke-width:1.5;" width="68" x="1210.5" y="186.9531"/><ellipse cx="1225.5" cy="202.9531" fill="#ADD1B2" rx="11" ry="11" style="stroke:#A80036;stroke-width:1.0;"/><path d="M1228.4688,208.5938 Q1227.8906,208.8906 1227.25,209.0313 Q1226.6094,209.1875 1225.9063,209.1875 Q1223.4063,209.1875 1222.0781,207.5469 Q1220.7656,205.8906 1220.7656,202.7656 Q1220.7656,199.6406 1222.0781,197.9844 Q1223.4063,196.3281 1225.9063,196.3281 Q1226.6094,196.3281 1227.25,196.4844 Q1227.9063,196.6406 1228.4688,196.9375 L1228.4688,199.6563 Q1227.8438,199.0781 1227.25,198.8125 Q1226.6563,198.5313 1226.0313,198.5313 Q1224.6875,198.5313 1224,199.6094 Q1223.3125,200.6719 1223.3125,202.7656 Q1223.3125,204.8594 1224,205.9375 Q1224.6875,207 1226.0313,207 Q1226.6563,207 1227.25,206.7344 Q1227.8438,206.4531 1228.4688,205.875 L1228.4688,208.5938 Z " fill="#000000"/><text fill="#000000" font-family="sans-serif" font-size="12" lengthAdjust="spacing" textLength="36" x="1239.5" y="207.1074">Marta</text><line style="stroke:#A80036;stroke-width:1.5;" x1="1211.5" x2="1277.5" y1="218.9531" y2="218.9531"/><line style="stroke:#A80036;stroke-width:1.5;" x1="1211.5" x2="1277.5" y1="226.9531" y2="226.9531"/><!--MD5=[14d61b089565140f68ac5d729f60621c]
reverse link MarketViewUpdateListener to MarketChange--><path codeLine="17" d="M474.18,109.8331 C526.83,133.5431 597.89,165.5431 645.36,186.9231 " fill="none" id="MarketViewUpdateListener-backto-MarketChange" style="stroke:#A80036;stroke-width:1.0;stroke-dasharray:7.0,7.0;"/><polygon fill="none" points="471.06,116.1031,455.7,101.5131,476.81,103.3431,471.06,116.1031" style="stroke:#A80036;stroke-width:1.0;"/><!--MD5=[1a17d40fa72cc5ff47539ea2952d981b]
link ValidatorEngine to MarketChange--><path codeLine="18" d="M628.28,112.4431 C641.88,131.8831 673.234,176.7054 673.234,176.7054 " fill="none" id="ValidatorEngine-MarketChange" style="stroke:#A80036;stroke-width:1.0;"/><polygon fill="#FFFFFF" points="680.12,186.5331,679.9529,179.324,673.234,176.7054,673.4011,183.9146,680.12,186.5331" style="stroke:#A80036;stroke-width:1.0;"/><polygon fill="#A80036" points="620.74,101.6631,622.6225,111.3304,623.6066,105.7598,629.1772,106.7439,620.74,101.6631" style="stroke:#A80036;stroke-width:1.0;"/><line style="stroke:#A80036;stroke-width:1.0;" x1="623.6066" x2="628.19" y1="105.7598" y2="112.3131"/><!--MD5=[645c79933bfad7716ea703c46983892a]
link MarketViewConverter to MarketChange--><path codeLine="19" d="M763.98,112.4431 C750.52,131.8831 719.5419,176.6678 719.5419,176.6678 " fill="none" id="MarketViewConverter-MarketChange" style="stroke:#A80036;stroke-width:1.0;"/><polygon fill="#FFFFFF" points="712.71,186.5331,719.4144,183.8777,719.5419,176.6678,712.8375,179.3231,712.71,186.5331" style="stroke:#A80036;stroke-width:1.0;"/><polygon fill="#A80036" points="771.44,101.6631,763.0276,106.7848,768.5934,105.7737,769.6045,111.3394,771.44,101.6631" style="stroke:#A80036;stroke-width:1.0;"/><line style="stroke:#A80036;stroke-width:1.0;" x1="768.5934" x2="764.04" y1="105.7737" y2="112.3531"/><!--MD5=[d1a188c77405f1b03f9f51fb5c58c4bf]
link MarketProcessorPort to MarketChange--><path codeLine="20" d="M928.17,107.2231 C914.55,113.8131 900.05,120.7131 886.5,126.9531 C845.67,145.7631 761.8363,182.1781 761.8363,182.1781 " fill="none" id="MarketProcessorPort-MarketChange" style="stroke:#A80036;stroke-width:1.0;"/><polygon fill="#FFFFFF" points="750.81,186.9131,757.9015,188.2211,761.8363,182.1781,754.7448,180.8702,750.81,186.9131" style="stroke:#A80036;stroke-width:1.0;"/><polygon fill="#A80036" points="939.88,101.5431,930.0365,101.8694,935.3807,103.7241,933.5261,109.0683,939.88,101.5431" style="stroke:#A80036;stroke-width:1.0;"/><line style="stroke:#A80036;stroke-width:1.0;" x1="935.3807" x2="928.185" y1="103.7241" y2="107.2181"/><!--MD5=[3956c09142876c000b636054257ca75d]
link Ruben to Mauro--><path codeLine="21" d="M1139.5,114.6831 C1139.5,132.9631 1139.5,174.5331 1139.5,174.5331 " fill="none" id="Ruben-Mauro" style="stroke:#A80036;stroke-width:1.0;"/><polygon fill="#FFFFFF" points="1139.5,186.5331,1143.5,180.5331,1139.5,174.5331,1135.5,180.5331,1139.5,186.5331" style="stroke:#A80036;stroke-width:1.0;"/><polygon fill="#A80036" points="1139.5,101.6631,1135.5,110.6631,1139.5,106.6631,1143.5,110.6631,1139.5,101.6631" style="stroke:#A80036;stroke-width:1.0;"/><line style="stroke:#A80036;stroke-width:1.0;" x1="1139.5" x2="1139.5" y1="106.6631" y2="114.6631"/><!--MD5=[065ac1734cd3f10b32be98e8ce676829]
link Fabio to Marta--><path codeLine="22" d="M1244.5,114.6831 C1244.5,132.9631 1244.5,174.5331 1244.5,174.5331 " fill="none" id="Fabio-Marta" style="stroke:#A80036;stroke-width:1.0;"/><polygon fill="#FFFFFF" points="1244.5,186.5331,1248.5,180.5331,1244.5,174.5331,1240.5,180.5331,1244.5,186.5331" style="stroke:#A80036;stroke-width:1.0;"/><polygon fill="#A80036" points="1244.5,101.6631,1240.5,110.6631,1244.5,106.6631,1248.5,110.6631,1244.5,101.6631" style="stroke:#A80036;stroke-width:1.0;"/><line style="stroke:#A80036;stroke-width:1.0;" x1="1244.5" x2="1244.5" y1="106.6631" y2="114.6631"/><!--MD5=[65e073774d75c01195b23f2ac749923f]
@startuml

title SEM BACKGROUND

class SEMBACKGROUND{
validatorEngine: ValidatorEngine
markerViewConverter: MarketViewConverter
marketProcessor: MarketProcessor
}

interface SEMBACKGROUND{
onMarketViewUpdates()
}

interface SEMBACKGROUND{
}

MarketViewUpdateListener <|.. MarketChange
ValidatorEngine <- -o MarketChange
MarketViewConverter <- -o MarketChange
MarketProcessorPort <- -o MarketChange
Ruben <- -o Mauro
Fabio <- -o Marta

@enduml

PlantUML version 1.2021.7(Sun May 23 12:40:07 UTC 2021)
(GPL source distribution)
Java Runtime: OpenJDK Runtime Environment
JVM: OpenJDK 64-Bit Server VM
Default Encoding: UTF-8
Language: en
Country: null
--></g></svg>